# xmcd
# 
# Track frame offsets:
#     150
#     1712
#     25315
#     45222
#     54773
#     74245
#     89243
#     102586
#     118721
#     145649
#     166161
#     184214
#     197167
#     215643
#     230361
#     246150
# 
# Disc length: 3543
# 
# Revision: 0
# Processed by: cddbd v1.5.2PL0 Copyright (c) Steve Scherf et al.
# Submitted via: fre:ac v1.0.31
# 
DISCID=df0dd510
DTITLE=Various Artist - The Star Wars Trilogy
DYEAR=0
DGENRE=Soundtrack
TTITLE0=Soundtrack - Twentieth Century-Fox Fanfare
TTITLE1=John Williams - Main Theme "Star Wars"
TTITLE2=John Williams - Princess Leia's Theme "Star Wars"
TTITLE3=John Williams - Here They Come
TTITLE4=John Williams - The Asteroid Field "The Emire Strikes Back"
TTITLE5=John Williams - Yoda's Theme "The Emire Strikes Back"
TTITLE6=John Williams - The Imperial March "The Emire Strikes Back"
TTITLE7=John Williams - Parade of the Ewok "Return Of The Jedi"
TTITLE8=John Williams - Luke and Leia "Return Of The Jedi"
TTITLE9=John Williams - Fight with Tie Fighters "Return Of The Jedi"
TTITLE10=John Williams - Jabba the Hut "Return Of The Jedi"
TTITLE11=John Williams - Darth Vader's Death "Return Of The Jedi"
TTITLE12=John Williams - The Forest Battle "Return Of The Jedi"
TTITLE13=John Williams - Finale "Return Of The Jedi"
TTITLE14=John Williams - The Flag Parade "Episode One The Phantom Menace"
TTITLE15=John Williams - Duel of the Fates "Episode One The Phantom Menace"
EXTD=
EXTT0=
EXTT1=
EXTT2=
EXTT3=
EXTT4=
EXTT5=
EXTT6=
EXTT7=
EXTT8=
EXTT9=
EXTT10=
EXTT11=
EXTT12=
EXTT13=
EXTT14=
EXTT15=
PLAYORDER=
